<svg xmlns="http://www.w3.org/2000/svg" xmlns:xlink="http://www.w3.org/1999/xlink" width="500" zoomAndPan="magnify" viewBox="0 0 375 374.999991" height="500" preserveAspectRatio="xMidYMid meet" version="1.0"><defs><g/><clipPath id="23a4f3b8fd"><path d="M 130.207031 110.226562 L 244.957031 110.226562 L 244.957031 224.976562 L 130.207031 224.976562 Z M 130.207031 110.226562 " clip-rule="nonzero"/></clipPath></defs><g clip-path="url(#23a4f3b8fd)"><path fill="#082b43" d="M 194.246094 224.8125 L 180.753906 224.8125 C 180.082031 224.8125 179.546875 224.34375 179.410156 223.738281 L 176.996094 212.730469 C 172.027344 211.589844 167.261719 209.644531 162.898438 206.890625 L 153.433594 213 C 152.894531 213.335938 152.222656 213.269531 151.753906 212.796875 L 142.222656 203.199219 C 141.753906 202.796875 141.683594 202.058594 142.019531 201.519531 L 148.0625 192.054688 C 145.378906 187.691406 143.363281 182.992188 142.222656 177.960938 L 131.28125 175.609375 C 130.609375 175.476562 130.207031 174.871094 130.207031 174.265625 L 130.207031 160.773438 C 130.207031 160.101562 130.609375 159.566406 131.28125 159.433594 L 142.222656 157.015625 C 143.363281 152.046875 145.378906 147.28125 148.0625 142.917969 L 142.019531 133.453125 C 141.683594 132.917969 141.753906 132.246094 142.222656 131.777344 L 151.753906 122.242188 C 152.222656 121.773438 152.894531 121.707031 153.433594 122.042969 L 162.898438 128.082031 C 167.261719 125.398438 172.027344 123.382812 176.996094 122.242188 L 179.410156 111.300781 C 179.546875 110.699219 180.082031 110.226562 180.753906 110.226562 L 194.246094 110.226562 C 194.917969 110.226562 195.453125 110.699219 195.589844 111.300781 L 197.9375 122.242188 C 202.972656 123.453125 207.738281 125.398438 212.101562 128.152344 L 221.566406 122.042969 C 222.105469 121.707031 222.773438 121.773438 223.246094 122.242188 L 232.777344 131.777344 C 233.246094 132.246094 233.3125 132.917969 232.976562 133.453125 L 226.871094 142.917969 C 229.621094 147.28125 231.570312 152.046875 232.777344 157.015625 L 243.71875 159.433594 C 244.324219 159.566406 244.792969 160.101562 244.792969 160.773438 L 244.792969 174.265625 C 244.792969 174.9375 244.324219 175.476562 243.71875 175.609375 L 232.777344 178.027344 C 231.570312 182.992188 229.621094 187.757812 226.871094 192.121094 L 232.976562 201.585938 C 233.3125 202.125 233.246094 202.796875 232.777344 203.265625 L 223.246094 212.796875 C 222.773438 213.269531 222.105469 213.335938 221.566406 213 L 212.101562 206.957031 C 207.738281 209.644531 202.972656 211.65625 197.9375 212.796875 L 195.589844 223.738281 C 195.453125 224.34375 194.851562 224.8125 194.246094 224.8125 Z M 187.464844 200.3125 C 169.410156 200.3125 154.707031 185.613281 154.707031 167.488281 C 154.707031 149.429688 169.410156 134.730469 187.464844 134.730469 C 205.589844 134.730469 220.292969 149.429688 220.292969 167.488281 C 220.292969 185.613281 205.589844 200.3125 187.464844 200.3125 Z M 187.464844 200.3125 " fill-opacity="1" fill-rule="evenodd"/></g><path fill="#082b43" d="M 168.671875 167.488281 L 175.851562 174.667969 C 177.53125 176.347656 176.324219 179.234375 173.90625 179.234375 C 173.234375 179.234375 172.5625 178.964844 172.027344 178.429688 L 163.03125 169.433594 C 161.957031 168.359375 161.957031 166.683594 163.03125 165.609375 L 172.027344 156.546875 C 172.699219 155.875 173.636719 155.605469 174.578125 155.875 C 176.589844 156.410156 177.328125 158.828125 175.851562 160.371094 Z M 206.261719 167.488281 L 199.144531 160.371094 C 198.476562 159.699219 198.140625 158.761719 198.40625 157.820312 C 198.945312 155.875 201.429688 155.070312 202.90625 156.546875 L 211.96875 165.609375 C 213.042969 166.683594 213.042969 168.359375 211.96875 169.433594 L 202.90625 178.429688 C 202.433594 178.964844 201.765625 179.234375 201.027344 179.234375 C 198.675781 179.234375 197.46875 176.347656 199.144531 174.667969 Z M 206.261719 167.488281 " fill-opacity="1" fill-rule="evenodd"/><path fill="#082b43" d="M 181.425781 180.644531 C 179.410156 180.644531 178.066406 178.429688 179.074219 176.617188 L 191.15625 155.671875 C 191.695312 154.867188 192.5 154.332031 193.507812 154.332031 C 195.519531 154.398438 196.929688 156.546875 195.855469 158.359375 L 183.773438 179.300781 C 183.304688 180.105469 182.363281 180.644531 181.425781 180.644531 Z M 181.425781 180.644531 " fill-opacity="1" fill-rule="evenodd"/><g fill="#082b43" fill-opacity="1"><g transform="translate(168.235051, 250.7787)"><g><path d="M 11.34375 -23.03125 L 16.09375 -23.03125 L 16.09375 -7.09375 C 16.09375 -5.625 15.765625 -4.328125 15.109375 -3.203125 C 14.460938 -2.078125 13.550781 -1.207031 12.375 -0.59375 C 11.195312 0.0078125 9.863281 0.3125 8.375 0.3125 C 5.9375 0.3125 4.035156 -0.304688 2.671875 -1.546875 C 1.316406 -2.785156 0.640625 -4.535156 0.640625 -6.796875 L 5.40625 -6.796875 C 5.40625 -5.671875 5.640625 -4.835938 6.109375 -4.296875 C 6.585938 -3.765625 7.34375 -3.5 8.375 -3.5 C 9.28125 -3.5 10 -3.804688 10.53125 -4.421875 C 11.070312 -5.046875 11.34375 -5.9375 11.34375 -7.09375 Z M 11.34375 -23.03125 "/></g></g></g><g fill="#082b43" fill-opacity="1"><g transform="translate(185.686527, 250.7787)"><g><path d="M 2.0625 0 L 2.0625 -23.03125 L 9.140625 -23.03125 C 11.171875 -23.03125 12.984375 -22.570312 14.578125 -21.65625 C 16.179688 -20.75 17.429688 -19.453125 18.328125 -17.765625 C 19.222656 -16.085938 19.671875 -14.179688 19.671875 -12.046875 L 19.671875 -10.984375 C 19.671875 -8.835938 19.226562 -6.929688 18.34375 -5.265625 C 17.46875 -3.597656 16.226562 -2.304688 14.625 -1.390625 C 13.019531 -0.472656 11.207031 -0.0078125 9.1875 0 Z M 6.796875 -19.1875 L 6.796875 -3.8125 L 9.09375 -3.8125 C 10.957031 -3.8125 12.378906 -4.414062 13.359375 -5.625 C 14.335938 -6.84375 14.835938 -8.582031 14.859375 -10.84375 L 14.859375 -12.0625 C 14.859375 -14.394531 14.375 -16.164062 13.40625 -17.375 C 12.4375 -18.582031 11.015625 -19.1875 9.140625 -19.1875 Z M 6.796875 -19.1875 "/></g></g></g></svg>